:SAMPLES-PER-SECOND 30
:FULLY-SPECIFIED
:DEGREES
238
root  7.57564 38.3871 -63.3761 174.907 5.16927 -174.049
RightUpLeg  -5.7527 -0.559689 8.93037
RightLeg  22.7209 3.80931 -3.59913
RightFoot  -12.3071 0.0406818 -0.520148
RightToes  3.97569e-016 -3.18055e-015 -2.98177e-016
Spine  6.68202 -0.801594 8.05119
Spine1  5.613 -1.07629 7.64573
HEad  -8.67461 4.6691 -2.73846
LeftShoulder1  -3.88251e-019 9.70628e-020 -3.87848e-018
LeftArm  -19.8509 46.2057 -78.0304
LeftForeArm  -13.4272 -23.8222 0.789182
LeftHand  -0.812886 -7.33058 7.89842
RightShoulder  8.02747 10.6743 37.7001
RightArm  7.50099 -42.1736 12.6066
RightForeArm  12.7181 10.4194 -2.74152
RightHand  -1.04837 2.01269 -16.1849
LeftUpLeg  -22.9626 12.5847 3.4071
LeftLeg  55.18 -4.08204 16.1471
LeftFoot  -6.60962 0.191152 -3.69474
LeftToes  4.86531e-011 4.41684e-011 -2.86034e-011
239
root  7.54977 38.4646 -64.4473 174.779 6.27122 -174.628
RightUpLeg  -3.56551 -0.536696 8.16115
RightLeg  22.0646 5.0503 -3.32129
RightFoot  -13.5019 0.0404822 -0.077419
RightToes  3.97569e-016 -3.18055e-015 -2.98177e-016
Spine  6.53423 -0.0930542 9.63467
Spine1  5.48532 0.0564352 5.10651
HEad  -9.71053 3.92588 -2.34441
LeftShoulder1  -3.88251e-019 9.70628e-020 -3.87848e-018
LeftArm  -26.1205 48.5344 -78.0438
LeftForeArm  -7.36657 -20.1351 -1.74945
LeftHand  -1.19249 -7.40301 11.4318
RightShoulder  8.11833 10.7332 38.0122
RightArm  10.3175 -38.6809 17.3618
RightForeArm  7.41283 14.9127 -3.48162
RightHand  -1.12413 2.50301 -16.2812
LeftUpLeg  -23.9201 13.1087 2.27722
LeftLeg  47.0072 -2.48546 13.9794
LeftFoot  -6.50739 0.155551 -3.01221
LeftToes  4.86531e-011 4.41684e-011 -2.86034e-011
240
root  7.4884 38.5196 -65.5158 174.647 7.6245 -175.119
RightUpLeg  -1.54235 -0.522285 7.47255
RightLeg  21.5115 6.47555 -3.25357
RightFoot  -14.6993 0.045892 0.118545
RightToes  3.97569e-016 -3.18055e-015 -2.98177e-016
Spine  6.29345 0.661042 10.9939
Spine1  5.73119 1.15096 2.70879
HEad  -10.7622 3.22401 -2.1044
LeftShoulder1  -3.88251e-019 9.70628e-020 -3.87848e-018
LeftArm  -30.8714 50.88 -77.5821
LeftForeArm  -5.15816 -16.492 -2.70083
LeftHand  -1.28202 -6.75388 12.8869
RightShoulder  8.1939 10.7782 38.2794
RightArm  17.0873 -34.3892 21.8085
RightForeArm  -1.17627 18.4637 -6.26487
RightHand  -1.10149 2.41027 -16.1422
LeftUpLeg  -23.2963 13.3968 1.6294
LeftLeg  35.8887 -1.77169 10.2899
LeftFoot  -5.97499 0.162655 -2.8532
LeftToes  4.86531e-011 4.41684e-011 -2.86034e-011
241
root  7.41673 38.585 -66.5948 174.481 9.07507 -175.735
RightUpLeg  0.599183 -0.48566 6.5783
RightLeg  20.6749 7.80379 -3.24561
RightFoot  -15.5347 0.0473976 -0.0159959
RightToes  3.97569e-016 -3.18055e-015 -2.98177e-016
Spine  6.19779 1.29413 11.3283
Spine1  5.82484 1.93105 1.09547
HEad  -11.3177 3.05199 -2.14671
LeftShoulder1  -3.88251e-019 9.70628e-020 -3.87848e-018
LeftArm  -32.9672 53.9104 -76.7498
LeftForeArm  -6.66349 -13.6549 -2.52083
LeftHand  -1.09059 -5.5662 12.1973
RightShoulder  8.1477 10.7524 38.1124
RightArm  23.3831 -29.7759 26.0068
RightForeArm  -7.9273 20.6652 -9.34253
RightHand  -1.12371 2.32525 -16.6319
LeftUpLeg  -21.3189 13.0307 1.28953
LeftLeg  22.8831 -2.54714 6.19419
LeftFoot  -3.54101 0.320373 -3.90982
LeftToes  4.86531e-011 4.41684e-011 -2.86034e-011
242
root  7.33148 38.5945 -67.6728 173.967 10.3862 -176.465
RightUpLeg  2.86905 -0.521929 5.37805
RightLeg  20.236 9.21396 -3.25662
RightFoot  -16.6 0.0644376 0.387396
RightToes  3.97569e-016 -3.18055e-015 -2.98177e-016
Spine  6.22629 1.67588 10.9268
Spine1  6.19046 2.41449 -0.0158117
HEad  -11.1277 3.45219 -2.28128
LeftShoulder1  -3.88251e-019 9.70628e-020 -3.87848e-018
LeftArm  -33.4485 57.1267 -75.1876
LeftForeArm  -7.67599 -11.0751 -2.38701
LeftHand  -0.82817 -3.84705 11.0807
RightShoulder  8.04221 10.6921 37.7322
RightArm  26.8635 -25.1878 29.8608
RightForeArm  -10.922 22.1769 -11.3022
RightHand  -1.22413 2.62951 -17.4345
LeftUpLeg  -18.4182 9.60945 1.77933
LeftLeg  11.0887 -2.05743 3.25736
LeftFoot  -1.04832 0.49591 -4.73949
LeftToes  4.86531e-011 4.41684e-011 -2.86034e-011
243
root  7.20164 38.5094 -68.7665 173.043 11.4924 -177.322
RightUpLeg  5.01082 -0.251114 3.86279
RightLeg  20.7938 10.2681 -3.32503
RightFoot  -18.1727 0.117902 1.40511
RightToes  3.97569e-016 -3.18055e-015 -2.98177e-016
Spine  6.14083 1.87789 10.2893
Spine1  7.22167 2.80902 -1.14875
HEad  -10.2467 4.07797 -2.37512
LeftShoulder1  -3.88251e-019 9.70628e-020 -3.87848e-018
LeftArm  -32.4769 59.9441 -72.7892
LeftForeArm  -5.99886 -8.42342 -2.39712
LeftHand  -0.584629 -2.08477 9.73899
RightShoulder  7.89419 10.6004 37.2081
RightArm  27.4784 -21.1561 33.3652
RightForeArm  -11.1362 23.5713 -12.2531
RightHand  -1.32425 3.12245 -17.7864
LeftUpLeg  -15.8126 1.94776 3.1774
LeftLeg  4.53597 3.0034 1.67679
LeftFoot  0.238755 0.392278 -3.3522
LeftToes  4.86531e-011 4.41684e-011 -2.86034e-011
